:FULLY-SPECIFIED
:FORCE-ALL-JOINTS-BE-3DOF
:DEGREES
1937
root 5.91502 13.6352 27.9099 1055.72 70.0657 332.875
lfemur -60.3203 6.66891 -3.27042
ltibia 57.9652 -0 0
lfoot 3.34514 -2.15561 -0.113728
ltoes -29.055 0 0
rfemur -5.16823 6.69526 19.4008
rtibia 66.5747 -0 0
rfoot -23.9041 -27.9153 0.0121266
rtoes -30.7249 0 0
lowerback 13.6955 5.23356 4.33868
upperback -0.641965 8.00189 3.1956
thorax -8.22654 3.78655 -0.649015
lowerneck -0.4016 15.4769 7.13785
upperneck 6.56714 21.1805 -7.40551
head 3.57112 10.5105 -2.35364
lclavicle 4.98453e-14 4.37326e-15 0
lhumerus 73.347 -34.5847 38.5626
lradius 63.8594 0 0
lwrist 26.1861 0 0
lhand -5.87186 31.894 0
lfingers 7.12502 0 0
lthumb 19.9555 60.8894 0
rclavicle 4.98453e-14 4.37326e-15 0
rhumerus -33.2232 33.1777 -75.468
rradius 89.3811 0 0
rwrist -23.7173 0 0
rhand -15.0445 -405.253 0
rfingers 7.12502 0 0
rthumb 11.1218 285.062 0
1938
root 5.80277 13.6413 27.9313 1055.12 70.6703 332.224
lfemur -60.2102 5.91075 -3.33117
ltibia 57.1173 -0 0
lfoot 4.22452 -2.33219 -0.123223
ltoes -28.4913 0 0
rfemur -5.60456 7.72482 19.5329
rtibia 67.3591 -0 0
rfoot -23.9684 -28.072 0.013533
rtoes -31.1126 0 0
lowerback 13.6601 5.23926 4.21815
upperback -0.649551 7.99159 3.2243
thorax -8.23566 3.78773 -0.548666
lowerneck -0.136704 15.4204 7.22214
upperneck 6.20519 21.1032 -7.57858
head 3.44095 10.4812 -2.45522
lclavicle -2.01518e-14 1.76918e-14 0
lhumerus 74.9473 -35.2287 36.5856
lradius 67.7778 0 0
lwrist 27.6167 0 0
lhand -4.96165 32.9822 0
lfingers 7.12502 0 0
lthumb 20.8303 61.884 0
rclavicle -2.01518e-14 1.76918e-14 0
rhumerus -31.8908 35.1416 -75.0753
rradius 89.2711 0 0
rwrist -22.3622 0 0
rhand -14.5281 -404.88 0
rfingers 7.12502 0 0
rthumb 11.6199 285.462 0
1939
root 5.6853 13.65 27.9573 1054.34 71.2774 331.412
lfemur -60.0995 5.15272 -3.3933
ltibia 56.2694 -0 0
lfoot 5.10394 -2.50889 -0.130007
ltoes -27.9275 0 0
rfemur -6.03963 8.75534 19.6573
rtibia 68.1436 -0 0
rfoot -24.0327 -28.2287 0.0147638
rtoes -31.5003 0 0
lowerback 13.6678 5.24489 4.10145
upperback -0.604554 7.98659 3.29686
thorax -8.21812 3.79415 -0.406967
lowerneck -0.279369 15.456 7.08333
upperneck 6.18529 21.1464 -7.60244
head 3.44908 10.4959 -2.4309
lclavicle -6.18717e-14 -2.10712e-14 0
lhumerus 76.4993 -35.8096 34.9884
lradius 71.5247 0 0
lwrist 28.4468 0 0
lhand -4.13737 33.5362 0
lfingers 7.12502 0 0
lthumb 21.622 62.349 0
rclavicle -6.18717e-14 -2.10712e-14 0
rhumerus -30.4201 37.058 -74.4509
rradius 89.2336 0 0
rwrist -21.5522 0 0
rhand -14.0593 -404.621 0
rfingers 7.12502 0 0
rthumb 12.0719 285.747 0
1940
root 5.563 13.6587 27.982 1053.68 71.9672 330.707
lfemur -59.9881 4.3948 -3.45683
ltibia 55.4215 -0 0
lfoot 5.98337 -2.68567 -0.134078
ltoes -27.3637 0 0
rfemur -6.4737 9.78677 19.7742
rtibia 68.928 -0 0
rfoot -24.0969 -28.3854 0.0158187
rtoes -31.8881 0 0
lowerback 13.7464 5.37934 4.11913
upperback -0.705862 8.16663 3.17839
thorax -8.34771 3.87081 -0.589473
lowerneck -0.0613573 15.2836 7.36996
upperneck 6.08294 20.9206 -7.69307
head 3.40575 10.3945 -2.52945
lclavicle 5.44918e-14 3.53837e-14 0
lhumerus 78.6345 -36.687 33.0283
lradius 75.2371 0 0
lwrist 29.1563 0 0
lhand -3.80342 32.4846 0
lfingers 7.12502 0 0
lthumb 21.9427 61.2601 0
rclavicle 5.44918e-14 3.53837e-14 0
rhumerus -29.5073 38.2773 -74.1095
rradius 89.3096 0 0
rwrist -21.2765 0 0
rhand -13.4629 -404.186 0
rfingers 7.12502 0 0
rthumb 12.647 286.217 0
